<?xml version="1.0" encoding="UTF-8" standalone="no"?>
<!DOCTYPE svg  PUBLIC '-//W3C//DTD SVG 1.1//EN'  'http://www.w3.org/Graphics/SVG/1.1/DTD/svg11.dtd'>
<svg version="1.1" xmlns="http://www.w3.org/2000/svg">
<defs>
<font id="Aeroport" horiz-adv-x="288">
<font-face x-height="512" unicode-range="U+0020-00FE" font-weight="400" font-family="Aeroport" units-per-em="1024" descent="-205" bbox="0 0 256 704" underline-position="26" panose-1="0 0 4 0 0 0 0 0 0 0" ascent="819" cap-height="640" underline-thickness="51"/>
<missing-glyph/>
<glyph glyph-name="space" unicode=" "/>
<glyph d="M96 128v64h64v-64h-64zM96 256v384h64v-384h-64z" glyph-name="exclam" unicode="!"/>
<glyph d="M64 576v64h32v-64h-32zM160 576v64h32v-64h-32z" glyph-name="quotedbl" unicode='&quot;'/>
<glyph d="M160 448v64h-64v-64h64zM64 320v64h-64v64h64v64h-64v64h64v64h32v-64h64v64h32v-64h64v-64h-64v-64h64v-64h-64v-64h-32v64h-64v-64h-32z" glyph-name="numbersign" unicode="#"/>
<glyph d="M96 64v64h-32l-32 16v0l-16 16l-16 32v64h64v-64h128v192h-128l-32 16v0l-16 16l-16 32v128l16 32l16 16l32 16h32v64h64v-64h32l32 -16v-1l16 -15l16 -32v-64h-64v64h-128v-128h128l32 -16v-1l16 -15l16 -32v-192l-16 -32h-1l-15 -16l-32 -16h-32v-64h-64z" glyph-name="dollar" unicode="$"/>
<glyph d="M192 128v64h64v-64h-64zM0 576v64h64v-64h-64zM0 128v64l16 32l16 32l16 32l16 32l16 32l16 32l16 32l16 32l16 32l16 32l16 32l16 32v64h64v-64l-16 -32l-16 -32l-16 -32l-16 -32l-16 -32l-16 -32l-16 -32l-16 -32l-16 -32l-16 -32l-16 -32l-16 -32v-64h-64z" glyph-name="percent" unicode="%"/>
<glyph d="M128 192l16 32l16 32l-16 32l-16 32l-16 32l-16 32h-32v-192h64zM128 448l16 32l16 32l16 32l16 32h-128l16 -32l16 -32l16 -32l16 -32v0zM64 128l-32 16v0l-16 16l-16 32v192l16 32l16 16l32 16l-16 32l-16 32l-16 32l-16 32l16 32l16 16l32 16h128l32 -16v-1l16 -15 l16 -32l-16 -32l-16 -32l-16 -32l-16 -32l-16 -32l-16 -32l16 -32l16 -32v64h64v-64l-16 -32l-16 -32l16 -32l16 -32v-64h-64v64l-16 -32l-16 -32h-96z" glyph-name="ampersand" unicode="&amp;"/>
<glyph d="M160 576v64h32v-64h-32z" glyph-name="quotesingle" unicode="&apos;"/>
<glyph d="M64 128l-32 16v0l-16 16l-16 32v384l16 32l16 16l32 16h96v-64h-96v-384h96v-64h-96z" glyph-name="parenleft" unicode="("/>
<glyph d="M96 128v64h96v384h-96v64h96l32 -16v-1l16 -15l16 -32v-384l-16 -32h-1l-15 -16l-32 -16h-96z" glyph-name="parenright" unicode=")"/>
<glyph d="M0 384v64h64v-64h-64zM192 384v64h64v-64h-64zM0 512v64h64v-64h-64zM192 512v64h64v-64h-64zM96 320v128h-32v64h32v128h64v-128h32v-64h-32v-128h-64z" glyph-name="asterisk" unicode="*"/>
<glyph d="M96 192v128h-96v64h96v128h64v-128h96v-64h-96v-128h-64z" glyph-name="plus" unicode="+"/>
<glyph d="M128 64v64h-32v64h64v-128h-32z" glyph-name="comma" unicode=","/>
<glyph d="M0 320v64h256v-64h-256z" glyph-name="hyphen" unicode="-"/>
<glyph d="M96 128v64h64v-64h-64z" glyph-name="period" unicode="."/>
<glyph d="M0 128v64l16 32l16 32l16 32l16 32l16 32l16 32l16 32l16 32l16 32l16 32l16 32l16 32v64h64v-64l-16 -32l-16 -32l-16 -32l-16 -32l-16 -32l-16 -32l-16 -32l-16 -32l-16 -32l-16 -32l-16 -32l-16 -32v-64h-64z" glyph-name="slash" unicode="/"/>
<glyph d="M192 192v384h-128v-384h128zM64 128l-32 16v0l-16 16l-16 32v384l16 32l16 16l32 16h128l32 -16v-1l16 -15l16 -32v-384l-16 -32h-1l-15 -16l-32 -16h-128z" glyph-name="zero" unicode="0"/>
<glyph d="M96 128v384h-32v64h32v64h64v-512h-64z" glyph-name="one" unicode="1"/>
<glyph d="M0 128v64l16 32l16 32l16 32l16 32l16 32l16 32l16 32l16 32l16 32l16 32l16 32l16 32h-128v-64h-64v64l16 32l16 16l32 16h128l32 -16v-1l16 -15l16 -32l-16 -32l-16 -32l-16 -32l-16 -32l-16 -32l-16 -32l-16 -32l-16 -32l-16 -32l-16 -32l-16 -32l-16 -32h192v-64 h-256z" glyph-name="two" unicode="2"/>
<glyph d="M64 128l-32 16v0l-16 16l-16 32v64h64v-64h128v192l32 -16v-1l16 -15l16 -32v-128l-16 -32h-1l-15 -16l-32 -16h-128zM96 384v64h96v128h-128v-64h-64v64l16 32l16 16l32 16h128l32 -16v-1l16 -15l16 -32v-128l-16 -32h-1l-15 -16l-32 -16h-96z" glyph-name="three" unicode="3"/>
<glyph d="M192 320v256l-16 -32l-16 -32l-16 -32l-16 -32l-16 -32l-16 -32l-16 -32l-16 -32h128zM192 128v128h-192v64l16 32l16 32l16 32l16 32l16 32l16 32l16 32l16 32l16 32l16 32h96v-512h-64z" glyph-name="four" unicode="4"/>
<glyph d="M64 128l-32 16v0l-16 16l-16 32v64h64v-64h128v192h-192v256h256v-64h-192v-128h128l32 -16v-1l16 -15l16 -32v-192l-16 -32h-1l-15 -16l-32 -16h-128z" glyph-name="five" unicode="5"/>
<glyph d="M192 192v192h-128v-192h128zM64 128l-32 16v0l-16 16l-16 32v384l16 32l16 16l32 16h128l32 -16v-1l16 -15l16 -32v-64h-64v64h-128v-128h128l32 -16v-1l16 -15l16 -32v-192l-16 -32h-1l-15 -16l-32 -16h-128z" glyph-name="six" unicode="6"/>
<glyph d="M0 128v64l16 32l16 32l16 32l16 32l16 32l16 32l16 32l16 32l16 32l16 32l16 32l16 32h-192v64h256v-64l-16 -32l-16 -32l-16 -32l-16 -32l-16 -32l-16 -32l-16 -32l-16 -32l-16 -32l-16 -32l-16 -32l-16 -32v-64h-64z" glyph-name="seven" unicode="7"/>
<glyph d="M64 128l-32 16v0l-16 16l-16 32v128l16 32l16 16l32 16v-192h128v192l32 -16v-1l16 -15l16 -32v-128l-16 -32h-1l-15 -16l-32 -16h-128zM192 448v128h-128v-128h128zM64 384l-32 16v0l-16 16l-16 32v128l16 32l16 16l32 16h128l32 -16v-1l16 -15l16 -32v-128l-16 -32h-1 l-15 -16l-32 -16h-128z" glyph-name="eight" unicode="8"/>
<glyph d="M192 448v128h-128v-128h128zM64 128l-32 16v0l-16 16l-16 32v64h64v-64h128v192h-128l-32 16v0l-16 16l-16 32v128l16 32l16 16l32 16h128l32 -16v-1l16 -15l16 -32v-384l-16 -32h-1l-15 -16l-32 -16h-128z" glyph-name="nine" unicode="9"/>
<glyph d="M96 128v64h64v-64h-64zM96 448v64h64v-64h-64z" glyph-name="colon" unicode=":"/>
<glyph d="M128 64v64h-32v64h64v-128h-32zM96 448v64h64v-64h-64z" glyph-name="semicolon" unicode=";"/>
<glyph d="M128 192l-16 32l-16 32l-16 32l-16 32l16 32l16 32l16 32l16 32h64l-16 -32l-16 -32l-16 -32l-16 -32l16 -32l16 -32l16 -32l16 -32h-64z" glyph-name="less" unicode="&lt;"/>
<glyph d="M0 256v64h256v-64h-256zM0 384v64h256v-64h-256z" glyph-name="equal" unicode="="/>
<glyph d="M64 192l16 32l16 32l16 32l16 32l-16 32l-16 32l-16 32l-16 32h64l16 -32l16 -32l16 -32l16 -32l-16 -32l-16 -32l-16 -32l-16 -32h-64z" glyph-name="greater" unicode="&gt;"/>
<glyph d="M96 128v64h64v-64h-64zM96 256v128l16 32l16 16l32 16h32v128h-128v-64h-64v64l16 32l16 16l32 16h128l32 -16v-1l16 -15l16 -32v-128l-16 -32h-1l-15 -16l-32 -16h-32v-128h-64z" glyph-name="question" unicode="?"/>
<glyph d="M96 192v128h-32v-128h32zM64 128l-32 16v0l-16 16l-16 32v128l16 32l16 16l32 16h96v-192h32v384h-128v-128h-64v128l16 32l16 16l32 16h128l32 -16v-1l16 -15l16 -32v-384l-16 -32h-1l-15 -16l-32 -16h-128z" glyph-name="at" unicode="@"/>
<glyph d="M192 448v128h-128v-128h128zM0 128v448l16 32l16 16l32 16h128l32 -16v-1l16 -15l16 -32v-448h-64v256h-128v-256h-64z" glyph-name="A" unicode="A"/>
<glyph d="M192 448v128h-128v-128h128zM0 128v512h192l32 -16v-1l16 -15l16 -32v-128l-16 -32h-1l-15 -16l-32 -16h-128v-192h128v192l32 -16v-1l16 -15l16 -32v-128l-16 -32h-1l-15 -16l-32 -16h-192z" glyph-name="B" unicode="B"/>
<glyph d="M64 128l-32 16v0l-16 16l-16 32v384l16 32l16 16l32 16h128l32 -16v-1l16 -15l16 -32v-64h-64v64h-128v-384h128v64h64v-64l-16 -32h-1l-15 -16l-32 -16h-128z" glyph-name="C" unicode="C"/>
<glyph d="M192 192v384h-128v-384h128zM0 128v512h192l32 -16v-1l16 -15l16 -32v-384l-16 -32h-1l-15 -16l-32 -16h-192z" glyph-name="D" unicode="D"/>
<glyph d="M0 128v512h256v-64h-192v-128h128v-64h-128v-192h192v-64h-256z" glyph-name="E" unicode="E"/>
<glyph d="M0 128v512h256v-64h-192v-128h128v-64h-128v-256h-64z" glyph-name="F" unicode="F"/>
<glyph d="M64 128l-32 16v0l-16 16l-16 32v384l16 32l16 16l32 16h128l32 -16v-1l16 -15l16 -32h-192v-384h128v192h-96v64h160v-256l-16 -32h-1l-15 -16l-32 -16h-128z" glyph-name="G" unicode="G"/>
<glyph d="M0 128v512h64v-192h128v192h64v-512h-64v256h-128v-256h-64z" glyph-name="H" unicode="H"/>
<glyph d="M64 128v64h32v384h-32v64h128v-64h-32v-384h32v-64h-128z" glyph-name="I" unicode="I"/>
<glyph d="M64 128l-32 16v0l-16 16l-16 32v64h64v-64h128v384h-32v64h96v-448l-16 -32h-1l-15 -16l-32 -16h-128z" glyph-name="J" unicode="J"/>
<glyph d="M0 128v512h64v-192h64l16 32l16 32l16 32l16 32v64h64v-64l-16 -32l-16 -32l-16 -32l-16 -32l-16 -32l-16 -32l16 -32l16 -32l16 -32l16 -32l16 -32l16 -32v-64h-64v64l-16 32l-16 32l-16 32l-16 32l-16 32l-16 32h-32v-256h-64z" glyph-name="K" unicode="K"/>
<glyph d="M0 128v512h64v-448h192v-64h-256z" glyph-name="L" unicode="L"/>
<glyph d="M0 128v512h64v-64l16 -32l16 -32l16 -32l16 -32l16 32l16 32l16 32l16 32v64h64v-512h-64v320l-16 -32l-16 -32l-16 -32l-16 -32l-16 32l-16 32l-16 32l-16 32v-320h-64z" glyph-name="M" unicode="M"/>
<glyph d="M0 128v512h64v-64l16 -32l16 -32l16 -32l16 -32l16 -32l16 -32l16 -32l16 -32v320h64v-512h-64v64l-16 32l-16 32l-16 32l-16 32l-16 32l-16 32l-16 32l-16 32v-320h-64z" glyph-name="N" unicode="N"/>
<glyph d="M192 192v384h-128v-384h128zM64 128l-32 16v0l-16 16l-16 32v384l16 32l16 16l32 16h128l32 -16v-1l16 -15l16 -32v-384l-16 -32h-1l-15 -16l-32 -16h-128z" glyph-name="O" unicode="O"/>
<glyph d="M192 448v128h-128v-128h128zM0 128v512h192l32 -16v-1l16 -15l16 -32v-128l-16 -32h-1l-15 -16l-32 -16h-128v-256h-64z" glyph-name="P" unicode="P"/>
<glyph d="M192 192v384h-128v-384h64l-16 32l-16 32h64l16 -32l16 -32v0zM64 128l-32 16v0l-16 16l-16 32v384l16 32l16 16l32 16h128l32 -16v-1l16 -15l16 -32v-384l-16 -32h-1l-15 -16l-32 -16h-128z" glyph-name="Q" unicode="Q"/>
<glyph d="M192 448v128h-128v-128h128zM0 128v512h192l32 -16v-1l16 -15l16 -32v-128l-16 -32h-1l-15 -16l-32 -16h-32l16 -32l16 -32l16 -32l16 -32l16 -32l16 -32v-64h-64v64l-16 32l-16 32l-16 32l-16 32l-16 32l-16 32h-32v-256h-64z" glyph-name="R" unicode="R"/>
<glyph d="M64 128l-32 16v0l-16 16l-16 32v64h64v-64h128v192h-128l-32 16v0l-16 16l-16 32v128l16 32l16 16l32 16h128l32 -16v-1l16 -15l16 -32v-64h-64v64h-128v-128h128l32 -16v-1l16 -15l16 -32v-192l-16 -32h-1l-15 -16l-32 -16h-128z" glyph-name="S" unicode="S"/>
<glyph d="M96 128v448h-96v64h256v-64h-96v-448h-64z" glyph-name="T" unicode="T"/>
<glyph d="M64 128l-32 16v0l-16 16l-16 32v448h64v-448h128v448h64v-448l-16 -32h-1l-15 -16l-32 -16h-128z" glyph-name="U" unicode="U"/>
<glyph d="M96 128l-16 32l-16 32l-16 32l-16 32l-16 32l-16 32v320h64v-320l16 -32l16 -32l16 -32l16 -32l16 32l16 32l16 32l16 32v320h64v-320l-16 -32l-16 -32l-16 -32l-16 -32l-16 -32l-16 -32h-64z" glyph-name="V" unicode="V"/>
<glyph d="M0 128v512h64v-320l16 32l16 32l16 32l16 32l16 -32l16 -32l16 -32l16 -32v320h64v-512h-64v64l-16 32l-16 32l-16 32l-16 32l-16 -32l-16 -32l-16 -32l-16 -32v-64h-64z" glyph-name="W" unicode="W"/>
<glyph d="M0 128v64l16 32l16 32l16 32l16 32l16 32l16 32l-16 32l-16 32l-16 32l-16 32l-16 32l-16 32v64h64v-64l16 -32l16 -32l16 -32l16 -32l16 32l16 32l16 32l16 32v64h64v-64l-16 -32l-16 -32l-16 -32l-16 -32l-16 -32l-16 -32l16 -32l16 -32l16 -32l16 -32l16 -32l16 -32 v-64h-64v64l-16 32l-16 32l-16 32l-16 32l-16 -32l-16 -32l-16 -32l-16 -32v-64h-64z" glyph-name="X" unicode="X"/>
<glyph d="M96 128v256l-16 32l-16 32l-16 32l-16 32l-16 32l-16 32v64h64v-64l16 -32l16 -32l16 -32l16 -32l16 32l16 32l16 32l16 32v64h64v-64l-16 -32l-16 -32l-16 -32l-16 -32l-16 -32l-16 -32v-256h-64z" glyph-name="Y" unicode="Y"/>
<glyph d="M0 128v64l16 32l16 32l16 32l16 32l16 32l16 32l16 32l16 32l16 32l16 32l16 32l16 32h-192v64h256v-64l-16 -32l-16 -32l-16 -32l-16 -32l-16 -32l-16 -32l-16 -32l-16 -32l-16 -32l-16 -32l-16 -32l-16 -32h192v-64h-256z" glyph-name="Z" unicode="Z"/>
<glyph d="M0 128v512h160v-64h-96v-384h96v-64h-160z" glyph-name="bracketleft" unicode="["/>
<glyph d="M192 128v64l-16 32l-16 32l-16 32l-16 32l-16 32l-16 32l-16 32l-16 32l-16 32l-16 32l-16 32l-16 32v64h64v-64l16 -32l16 -32l16 -32l16 -32l16 -32l16 -32l16 -32l16 -32l16 -32l16 -32l16 -32l16 -32v-64h-64z" glyph-name="backslash" unicode="\"/>
<glyph d="M96 128v64h96v384h-96v64h160v-512h-160z" glyph-name="bracketright" unicode="]"/>
<glyph d="M0 576l16 32l16 32l16 32l16 32h64l16 -32l16 -32l16 -32l16 -32h-64l-16 32l-16 32l-16 -32l-16 -32h-64z" glyph-name="asciicircum" unicode="^"/>
<glyph d="M0 0v64h256v-64h-256z" glyph-name="underscore" unicode="_"/>
<glyph d="M128 576l-16 32l-16 32l-16 32l-16 32h64l16 -32l16 -32l16 -32l16 -32h-64z" glyph-name="grave" unicode="`"/>
<glyph d="M192 192v128h-128v-128h128zM64 128l-32 16v0l-16 16l-16 32v128l16 32l16 16l32 16h128v64h-192l16 32l16 16l32 16h128l32 -16v-1l16 -15l16 -32v-320h-192z" glyph-name="a" unicode="a"/>
<glyph d="M192 192v256h-128v-256h128zM0 128v512h64v-128h128l32 -16v-1l16 -15l16 -32v-256l-16 -32h-1l-15 -16l-32 -16h-192z" glyph-name="b" unicode="b"/>
<glyph d="M64 128l-32 16v0l-16 16l-16 32v256l16 32l16 16l32 16h128l32 -16v-1l16 -15l16 -32v-64h-64v64h-128v-256h128v64h64v-64l-16 -32h-1l-15 -16l-32 -16h-128z" glyph-name="c" unicode="c"/>
<glyph d="M192 192v256h-128v-256h128zM64 128l-32 16v0l-16 16l-16 32v256l16 32l16 16l32 16h128v128h64v-512h-192z" glyph-name="d" unicode="d"/>
<glyph d="M192 384v64h-128v-64h128zM64 128l-32 16v0l-16 16l-16 32v256l16 32l16 16l32 16h128l32 -16v-1l16 -15l16 -32v-64l-16 -32h-1l-15 -16l-32 -16h-128v-128h128v64h64v-64l-16 -32h-1l-15 -16l-32 -16h-128z" glyph-name="e" unicode="e"/>
<glyph d="M96 128v320h-32v64h32v64l16 32l16 16l32 16h32v-64h-32v-64h32v-64h-32v-320h-64z" glyph-name="f" unicode="f"/>
<glyph d="M192 192v256h-128v-256h128zM64 0l-32 16v0l-16 16l-16 32h192v64h-128l-32 16v0l-16 16l-16 32v256l16 32l16 16l32 16h192v-448l-16 -32h-1l-15 -16l-32 -16h-128z" glyph-name="g" unicode="g"/>
<glyph d="M0 128v512h64v-128h128l32 -16v-1l16 -15l16 -32v-320h-64v320h-128v-320h-64z" glyph-name="h" unicode="h"/>
<glyph d="M64 128v64h32v256h-32v64h96v-320h32v-64h-128zM96 576v64h64v-64h-64z" glyph-name="i" unicode="i"/>
<glyph d="M64 0l-32 16v0l-16 16l-16 32h96v384h-32v64h96v-448l-16 -32h-1l-15 -16l-32 -16h-32zM96 576v64h64v-64h-64z" glyph-name="j" unicode="j"/>
<glyph d="M0 128v512h64v-256h64l16 32l16 32l16 32l16 32h64l-16 -32l-16 -32l-16 -32l-16 -32l-16 -32l16 -32l16 -32l16 -32l16 -32l16 -32v-64h-64v64l-16 32l-16 32l-16 32l-16 32h-64v-192h-64z" glyph-name="k" unicode="k"/>
<glyph d="M64 128v64h32v384h-32v64h96v-448h32v-64h-128z" glyph-name="l" unicode="l"/>
<glyph d="M0 128v384h192l32 -16v-1l16 -15l16 -32v-320h-64v320h-32v-320h-64v320h-32v-320h-64z" glyph-name="m" unicode="m"/>
<glyph d="M0 128v384h192l32 -16v-1l16 -15l16 -32v-320h-64v320h-128v-320h-64z" glyph-name="n" unicode="n"/>
<glyph d="M192 192v256h-128v-256h128zM64 128l-32 16v0l-16 16l-16 32v256l16 32l16 16l32 16h128l32 -16v-1l16 -15l16 -32v-256l-16 -32h-1l-15 -16l-32 -16h-128z" glyph-name="o" unicode="o"/>
<glyph d="M192 192v256h-128v-256h128zM0 0v512h192l32 -16v-1l16 -15l16 -32v-256l-16 -32h-1l-15 -16l-32 -16h-128v-128h-64z" glyph-name="p" unicode="p"/>
<glyph d="M192 192v256h-128v-256h128zM192 0v128h-128l-32 16v0l-16 16l-16 32v256l16 32l16 16l32 16h192v-512h-64z" glyph-name="q" unicode="q"/>
<glyph d="M0 128v384h64v-64l16 32l16 32h96l32 -16v-1l16 -15l16 -32v-64h-64v64h-64l-16 -32l-16 -32l-16 -32l-16 -32v-192h-64z" glyph-name="r" unicode="r"/>
<glyph d="M64 128l-32 16v0l-16 16l-16 32h192v128h-128l-32 16v0l-16 16l-16 32v64l16 32l16 16l32 16h128l32 -16v-1l16 -15l16 -32h-192v-64h128l32 -16v-1l16 -15l16 -32v-128l-16 -32h-1l-15 -16l-32 -16h-128z" glyph-name="s" unicode="s"/>
<glyph d="M160 128l-32 16v0l-16 16l-16 32v256h-32v64h32v128h64v-128h32v-64h-32v-256h32v-64h-32z" glyph-name="t" unicode="t"/>
<glyph d="M64 128l-32 16v0l-16 16l-16 32v320h64v-320h128v320h64v-320l-16 -32h-1l-15 -16l-32 -16h-128z" glyph-name="u" unicode="u"/>
<glyph d="M96 128l-16 32l-16 32l-16 32l-16 32l-16 32l-16 32v192h64v-192l16 -32l16 -32l16 -32l16 -32l16 32l16 32l16 32l16 32v192h64v-192l-16 -32l-16 -32l-16 -32l-16 -32l-16 -32l-16 -32h-64z" glyph-name="v" unicode="v"/>
<glyph d="M0 128v384h64v-192l16 32l16 32l16 32l16 32l16 -32l16 -32l16 -32l16 -32v192h64v-384h-64v64l-16 32l-16 32l-16 32l-16 32l-16 -32l-16 -32l-16 -32l-16 -32v-64h-64z" glyph-name="w" unicode="w"/>
<glyph d="M0 128v64l16 32l16 32l16 32l16 32l16 32l16 32l-16 32l-16 32l-16 32l-16 32h64l16 -32l16 -32l16 32l16 32h64l-16 -32l-16 -32l-16 -32l-16 -32l16 -32l16 -32l16 -32l16 -32l16 -32l16 -32v-64h-64v64l-16 32l-16 32l-16 32l-16 32l-16 -32l-16 -32l-16 -32l-16 -32 v-64h-64z" glyph-name="x" unicode="x"/>
<glyph d="M64 0l-32 16v0l-16 16l-16 32h192v64h-128l-32 16v0l-16 16l-16 32v320h64v-320h128v320h64v-448l-16 -32h-1l-15 -16l-32 -16h-128z" glyph-name="y" unicode="y"/>
<glyph d="M0 128v64l16 32l16 32l16 32l16 32l16 32l16 32l16 32l16 32h-128v64h224l-16 -32l-16 -32l-16 -32l-16 -32l-16 -32l-16 -32l-16 -32l-16 -32l-16 -32l-16 -32h192v-64h-256z" glyph-name="z" unicode="z"/>
<glyph d="M160 128l-32 16v0l-16 16l-16 32v192h-32v64h32v128l16 32l16 16l32 16h32v-64h-32v-384h32v-64h-32z" glyph-name="braceleft" unicode="{"/>
<glyph d="M96 128v512h64v-512h-64z" glyph-name="bar" unicode="|"/>
<glyph d="M64 128v64h32v384h-32v64h32l32 -16v-1l16 -15l16 -32v-128h32v-64h-32v-192l-16 -32h-1l-15 -16l-32 -16h-32z" glyph-name="braceright" unicode="}"/>
<glyph d="M0 320l16 32l16 32l16 32l16 32h64l16 -32l16 -32l16 32l16 32h64l-16 -32l-16 -32l-16 -32l-16 -32h-64l-16 32l-16 32l-16 -32l-16 -32h-64z" glyph-name="asciitilde" unicode="~"/>
<glyph d="M96 128v384h64v-384h-64zM96 576v64h64v-64h-64z" glyph-name="exclamdown" unicode="¡"/>
<glyph d="M96 128v64h-32l-32 16v0l-16 16l-16 32v256l16 32l16 16l32 16h32v64h64v-64h32l32 -16v-1l16 -15l16 -32v-64h-64v64h-128v-256h128v64h64v-64l-16 -32h-1l-15 -16l-32 -16h-32v-64h-64z" glyph-name="cent" unicode="¢"/>
<glyph d="M0 128v64l16 32l16 32l16 32l16 32l16 32l16 32h-32v64h32v128l16 32l16 16l32 16h96v-64h-96v-128h96v-64h-96l-16 -32l-16 -32l-16 -32l-16 -32l-16 -32l-16 -32h192v-64h-256z" glyph-name="sterling" unicode="£"/>
<glyph d="M96 128v128h-96v64h96v64h-96v64h64l-16 32l-16 32l-16 32l-16 32v64h64v-64l16 -32l16 -32l16 -32l16 -32l16 32l16 32l16 32l16 32v64h64v-64l-16 -32l-16 -32l-16 -32l-16 -32h64v-64h-96v-64h96v-64h-96v-128h-64z" glyph-name="yen" unicode="¥"/>
<glyph d="M128 320l16 32l16 32l-16 32l-16 32l-16 -32l-16 -32l16 -32l16 -32v0zM0 128v64h160v64h-64l-16 32l-16 32l-16 32l-16 32l16 32l16 32v128l16 32l16 32h160v-64h-160v-64h64l16 -32l16 -32l16 -32l16 -32l-16 -32l-16 -32v-128l-16 -32l-16 -32h-160z" glyph-name="section" unicode="§"/>
<glyph d="M0 576v64h64v-64h-64zM192 576v64h64v-64h-64z" glyph-name="dieresis" unicode="¨"/>
<glyph d="M64 256l-32 16v0l-16 16l-16 32v128l16 32l16 16l32 16h32l32 -16v-1l16 -15l16 -32h-96v-128h96l-16 -32h-1l-15 -16l-32 -16h-32zM64 128l-32 16v0l-16 16l-16 32h192v384h-192l16 32l16 16l32 16h128l32 -16v-1l16 -15l16 -32v-384l-16 -32h-1l-15 -16l-32 -16h-128z " glyph-name="copyright" unicode="©"/>
<glyph d="M0 256v64h256v-64h-256zM64 384l-32 16v0l-16 16l-16 32v128l16 32l16 16l32 16h192v-256h-64v192h-128v-128h128l-16 -32l-16 -32h-96z" glyph-name="ordfeminine" unicode="ª"/>
<glyph d="M96 256v64h32l16 -32l16 -32h-64zM96 384v64h-32v-64h32zM0 256v256h96l32 -16v-1l16 -15l16 -32v-64l-16 -32h-1l-15 -16l-32 -16h-32v-64h-64zM64 128l-32 16v0l-16 16l-16 32h192v384h-192l16 32l16 16l32 16h128l32 -16v-1l16 -15l16 -32v-384l-16 -32h-1l-15 -16 l-32 -16h-128z" glyph-name="registered" unicode="®"/>
<glyph d="M0 128v64h256v-64h-256zM96 256v128h-96v64h96v128h64v-128h96v-64h-96v-128h-64z" glyph-name="plusminus" unicode="±"/>
<glyph d="M64 128l-32 16v0l-16 16l-16 32v128l16 32l16 16l32 16h32v128h64v-128l-16 -32h-1l-15 -16l-32 -16h-32v-128h128v64h64v-64l-16 -32h-1l-15 -16l-32 -16h-128zM96 576v64h64v-64h-64z" glyph-name="questiondown" unicode="¿"/>
<glyph d="M192 320v128h-128v-128h128zM0 128v320l16 32l16 16l32 16h128l32 -16v-1l16 -15l16 -32v-320h-64v128h-128v-128h-64zM128 576l-16 32l-16 32l-16 32l-16 32h64l16 -32l16 -32l16 -32l16 -32h-64z" glyph-name="Agrave" unicode="À"/>
<glyph d="M192 320v128h-128v-128h128zM0 128v320l16 32l16 16l32 16h128l32 -16v-1l16 -15l16 -32v-320h-64v128h-128v-128h-64zM64 576l16 32l16 32l16 32l16 32h64l-16 -32l-16 -32l-16 -32l-16 -32h-64z" glyph-name="Aacute" unicode="Á"/>
<glyph d="M192 320v128h-128v-128h128zM0 128v320l16 32l16 16l32 16h128l32 -16v-1l16 -15l16 -32v-320h-64v128h-128v-128h-64zM0 576l16 32l16 32l16 32l16 32h64l16 -32l16 -32l16 -32l16 -32h-64l-16 32l-16 32l-16 -32l-16 -32h-64z" glyph-name="Acircumflex" unicode="Â"/>
<glyph d="M192 320v128h-128v-128h128zM0 128v320l16 32l16 16l32 16h128l32 -16v-1l16 -15l16 -32v-320h-64v128h-128v-128h-64zM0 576l16 32l16 32l16 32l16 32h64l16 -32l16 -32l16 32l16 32h64l-16 -32l-16 -32l-16 -32l-16 -32h-64l-16 32l-16 32l-16 -32l-16 -32h-64z" glyph-name="Atilde" unicode="Ã"/>
<glyph d="M192 320v128h-128v-128h128zM0 128v320l16 32l16 16l32 16h128l32 -16v-1l16 -15l16 -32v-320h-64v128h-128v-128h-64zM0 576v64h64v-64h-64zM192 576v64h64v-64h-64z" glyph-name="Adieresis" unicode="Ä"/>
<glyph d="M192 320v128h-128v-128h128zM0 128v320l16 32l16 16l32 16h128l32 -16v-1l16 -15l16 -32v-320h-64v128h-128v-128h-64zM128 576l-32 16v0l-16 16l-16 32l16 32l16 16l32 16l32 -16v-1l16 -15l16 -32l-16 -32h-1l-15 -16l-32 -16v0z" glyph-name="Aring" unicode="Å"/>
<glyph d="M96 448v128h-32v-128h32zM0 128v448l16 32l16 16l32 16h192v-64h-96v-128h96v-64h-96v-192h96v-64h-160v256h-32v-256h-64z" glyph-name="AE" unicode="Æ"/>
<glyph d="M64 0v64h32v64h-32l-32 16v0l-16 16l-16 32v384l16 32l16 16l32 16h128l32 -16v-1l16 -15l16 -32v-64h-64v64h-128v-384h128v64h64v-64l-16 -32h-1l-15 -16l-32 -16h-32v-64l-16 -32h-1l-15 -16l-32 -16h-32z" glyph-name="Ccedilla" unicode="Ç"/>
<glyph d="M0 128v384h256v-64h-192v-64h128v-64h-128v-128h192v-64h-256zM128 576l-16 32l-16 32l-16 32l-16 32h64l16 -32l16 -32l16 -32l16 -32h-64z" glyph-name="Egrave" unicode="È"/>
<glyph d="M0 128v384h256v-64h-192v-64h128v-64h-128v-128h192v-64h-256zM64 576l16 32l16 32l16 32l16 32h64l-16 -32l-16 -32l-16 -32l-16 -32h-64z" glyph-name="Eacute" unicode="É"/>
<glyph d="M0 128v384h256v-64h-192v-64h128v-64h-128v-128h192v-64h-256zM0 576l16 32l16 32l16 32l16 32h64l16 -32l16 -32l16 32l16 32h64l-16 -32l-16 -32l-16 -32l-16 -32h-64l-16 32l-16 32l-16 -32l-16 -32h-64z" glyph-name="Ecircumflex" unicode="Ê"/>
<glyph d="M0 128v384h256v-64h-192v-64h128v-64h-128v-128h192v-64h-256zM0 576v64h64v-64h-64zM192 576v64h64v-64h-64z" glyph-name="Edieresis" unicode="Ë"/>
<glyph d="M64 128v64h32v256h-32v64h128v-64h-32v-256h32v-64h-128zM128 576l-16 32l-16 32l-16 32l-16 32h64l16 -32l16 -32l16 -32l16 -32h-64z" glyph-name="Igrave" unicode="Ì"/>
<glyph d="M64 128v64h32v256h-32v64h128v-64h-32v-256h32v-64h-128zM64 576l16 32l16 32l16 32l16 32h64l-16 -32l-16 -32l-16 -32l-16 -32h-64z" glyph-name="Iacute" unicode="Í"/>
<glyph d="M64 128v64h32v256h-32v64h128v-64h-32v-256h32v-64h-128zM0 576l16 32l16 32l16 32l16 32h64l16 -32l16 -32l16 -32l16 -32h-64l-16 32l-16 32l-16 -32l-16 -32h-64z" glyph-name="Icircumflex" unicode="Î"/>
<glyph d="M64 128v64h32v256h-32v64h128v-64h-32v-256h32v-64h-128zM0 576v64h64v-64h-64zM192 576v64h64v-64h-64z" glyph-name="Idieresis" unicode="Ï"/>
<glyph d="M192 192v384h-96v-128h64v-64h-64v-192h96zM0 128v64h64v192h-64v64h64v128h-64v64h192l32 -16v-1l16 -15l16 -32v-384l-16 -32h-1l-15 -16l-32 -16h-192z" glyph-name="Eth" unicode="Ð"/>
<glyph d="M0 128v384h96l16 -32l16 -32l16 -32l16 -32l16 -32l16 -32v192h64v-384h-64v64l-16 32l-16 32l-16 32l-16 32l-16 32l-16 32l-16 32l-16 32v-320h-64zM0 576l16 32l16 32l16 32l16 32h64l16 -32l16 -32l16 32l16 32h64l-16 -32l-16 -32l-16 -32l-16 -32h-64l-16 32 l-16 32l-16 -32l-16 -32h-64z" glyph-name="Ntilde" unicode="Ñ"/>
<glyph d="M192 192v256h-128v-256h128zM64 128l-32 16v0l-16 16l-16 32v256l16 32l16 16l32 16h128l32 -16v-1l16 -15l16 -32v-256l-16 -32h-1l-15 -16l-32 -16h-128zM128 576l-16 32l-16 32l-16 32l-16 32h64l16 -32l16 -32l16 -32l16 -32h-64z" glyph-name="Ograve" unicode="Ò"/>
<glyph d="M192 192v256h-128v-256h128zM64 128l-32 16v0l-16 16l-16 32v256l16 32l16 16l32 16h128l32 -16v-1l16 -15l16 -32v-256l-16 -32h-1l-15 -16l-32 -16h-128zM64 576l16 32l16 32l16 32l16 32h64l-16 -32l-16 -32l-16 -32l-16 -32h-64z" glyph-name="Oacute" unicode="Ó"/>
<glyph d="M192 192v256h-128v-256h128zM64 128l-32 16v0l-16 16l-16 32v256l16 32l16 16l32 16h128l32 -16v-1l16 -15l16 -32v-256l-16 -32h-1l-15 -16l-32 -16h-128zM0 576l16 32l16 32l16 32l16 32h64l16 -32l16 -32l16 -32l16 -32h-64l-16 32l-16 32l-16 -32l-16 -32h-64z" glyph-name="Ocircumflex" unicode="Ô"/>
<glyph d="M192 192v256h-128v-256h128zM64 128l-32 16v0l-16 16l-16 32v256l16 32l16 16l32 16h128l32 -16v-1l16 -15l16 -32v-256l-16 -32h-1l-15 -16l-32 -16h-128zM0 576l16 32l16 32l16 32l16 32h64l16 -32l16 -32l16 32l16 32h64l-16 -32l-16 -32l-16 -32l-16 -32h-64l-16 32 l-16 32l-16 -32l-16 -32h-64z" glyph-name="Otilde" unicode="Õ"/>
<glyph d="M192 192v256h-128v-256h128zM64 128l-32 16v0l-16 16l-16 32v256l16 32l16 16l32 16h128l32 -16v-1l16 -15l16 -32v-256l-16 -32h-1l-15 -16l-32 -16h-128zM0 576v64h64v-64h-64zM192 576v64h64v-64h-64z" glyph-name="Odieresis" unicode="Ö"/>
<glyph d="M0 192l16 32l16 32l16 32l16 32l16 32l16 32l-16 32l-16 32l-16 32l-16 32l-16 32l-16 32h64l16 -32l16 -32l16 -32l16 -32l16 32l16 32l16 32l16 32h64l-16 -32l-16 -32l-16 -32l-16 -32l-16 -32l-16 -32l16 -32l16 -32l16 -32l16 -32l16 -32l16 -32h-64l-16 32l-16 32 l-16 32l-16 32l-16 -32l-16 -32l-16 -32l-16 -32h-64z" glyph-name="multiply" unicode="×"/>
<glyph d="M192 192v256l-16 -32l-16 -32l-16 -32l-16 -32l-16 -32l-16 -32l-16 -32l-16 -32h128zM64 320l16 32l16 32l16 32l16 32l16 32l16 32l16 32l16 32h-128v-256v0zM64 128l-32 16v0l-16 16l-16 32v384l16 32l16 16l32 16h128l32 -16v-1l16 -15l16 -32v-384l-16 -32h-1 l-15 -16l-32 -16h-128z" glyph-name="Oslash" unicode="Ø"/>
<glyph d="M64 128l-32 16v0l-16 16l-16 32v320h64v-320h128v320h64v-320l-16 -32h-1l-15 -16l-32 -16h-128zM128 576l-16 32l-16 32l-16 32l-16 32h64l16 -32l16 -32l16 -32l16 -32h-64z" glyph-name="Ugrave" unicode="Ù"/>
<glyph d="M64 128l-32 16v0l-16 16l-16 32v320h64v-320h128v320h64v-320l-16 -32h-1l-15 -16l-32 -16h-128zM64 576l16 32l16 32l16 32l16 32h64l-16 -32l-16 -32l-16 -32l-16 -32h-64z" glyph-name="Uacute" unicode="Ú"/>
<glyph d="M64 128l-32 16v0l-16 16l-16 32v320h64v-320h128v320h64v-320l-16 -32h-1l-15 -16l-32 -16h-128zM0 576l16 32l16 32l16 32l16 32h64l16 -32l16 -32l16 -32l16 -32h-64l-16 32l-16 32l-16 -32l-16 -32h-64z" glyph-name="Ucircumflex" unicode="Û"/>
<glyph d="M64 128l-32 16v0l-16 16l-16 32v320h64v-320h128v320h64v-320l-16 -32h-1l-15 -16l-32 -16h-128zM0 576v64h64v-64h-64zM192 576v64h64v-64h-64z" glyph-name="Udieresis" unicode="Ü"/>
<glyph d="M96 128v256l-16 32l-16 32l-16 32l-16 32h64l16 -32l16 -32l16 32l16 32h64l-16 -32l-16 -32l-16 -32l-16 -32v-256h-64zM64 576l16 32l16 32l16 32l16 32h64l-16 -32l-16 -32l-16 -32l-16 -32h-64z" horiz-adv-x="256" glyph-name="Yacute" unicode="Ý"/>
<glyph d="M0 128v384h256v-64h-192v-64h128v-64h-128v-128h192v-64h-256z" glyph-name="Thorn" unicode="Þ"/>
<glyph d="M160 128v64h32v192l32 -16v-1l16 -15l16 -32v-128l-16 -32h-1l-15 -16l-32 -16h-32zM0 64v512l16 32l16 16l32 16h128l32 -16v-1l16 -15l16 -32v-128l-16 -32h-1l-15 -16l-32 -16h-96v64h96v128h-128v-512h-64z" glyph-name="germandbls" unicode="ß"/>
<glyph d="M192 192v128h-128v-128h128zM64 128l-32 16v0l-16 16l-16 32v128l16 32l16 16l32 16h128v64h-192l16 32l16 16l32 16h128l32 -16v-1l16 -15l16 -32v-320h-192zM128 576l-16 32l-16 32l-16 32l-16 32h64l16 -32l16 -32l16 -32l16 -32h-64z" glyph-name="agrave" unicode="à"/>
<glyph d="M192 192v128h-128v-128h128zM64 128l-32 16v0l-16 16l-16 32v128l16 32l16 16l32 16h128v64h-192l16 32l16 16l32 16h128l32 -16v-1l16 -15l16 -32v-320h-192zM64 576l16 32l16 32l16 32l16 32h64l-16 -32l-16 -32l-16 -32l-16 -32h-64z" glyph-name="aacute" unicode="á"/>
<glyph d="M192 192v128h-128v-128h128zM64 128l-32 16v0l-16 16l-16 32v128l16 32l16 16l32 16h128v64h-192l16 32l16 16l32 16h128l32 -16v-1l16 -15l16 -32v-320h-192zM0 576l16 32l16 32l16 32l16 32h64l16 -32l16 -32l16 -32l16 -32h-64l-16 32l-16 32l-16 -32l-16 -32h-64z " glyph-name="acircumflex" unicode="â"/>
<glyph d="M192 192v128h-128v-128h128zM64 128l-32 16v0l-16 16l-16 32v128l16 32l16 16l32 16h128v64h-192l16 32l16 16l32 16h128l32 -16v-1l16 -15l16 -32v-320h-192zM0 576l16 32l16 32l16 32l16 32h64l16 -32l16 -32l16 32l16 32h64l-16 -32l-16 -32l-16 -32l-16 -32h-64 l-16 32l-16 32l-16 -32l-16 -32h-64z" glyph-name="atilde" unicode="ã"/>
<glyph d="M192 192v128h-128v-128h128zM64 128l-32 16v0l-16 16l-16 32v128l16 32l16 16l32 16h128v64h-192l16 32l16 16l32 16h128l32 -16v-1l16 -15l16 -32v-320h-192zM0 576v64h64v-64h-64zM192 576v64h64v-64h-64z" glyph-name="adieresis" unicode="ä"/>
<glyph d="M192 192v128h-128v-128h128zM64 128l-32 16v0l-16 16l-16 32v128l16 32l16 16l32 16h128v64h-192l16 32l16 16l32 16h128l32 -16v-1l16 -15l16 -32v-320h-192zM128 576l-32 16v0l-16 16l-16 32l16 32l16 16l32 16l32 -16v-1l16 -15l16 -32l-16 -32h-1l-15 -16l-32 -16v0z " glyph-name="aring" unicode="å"/>
<glyph d="M96 192v128h-32v-128h32zM192 384v64h-32v-64h32zM64 128l-32 16v0l-16 16l-16 32v128l16 32l16 16l32 16h32v64h-96l16 32l16 16l32 16h128l32 -16v-1l16 -15l16 -32v-64l-16 -32h-1l-15 -16l-32 -16h-32v-128h32v64h64v-64l-16 -32h-1l-15 -16l-32 -16h-128z" glyph-name="ae" unicode="æ"/>
<glyph d="M64 0v64h32v64h-32l-32 16v0l-16 16l-16 32v256l16 32l16 16l32 16h128l32 -16v-1l16 -15l16 -32v-64h-64v64h-128v-256h128v64h64v-64l-16 -32h-1l-15 -16l-32 -16h-32v-64l-16 -32h-1l-15 -16l-32 -16h-32z" glyph-name="ccedilla" unicode="ç"/>
<glyph d="M192 384v64h-128v-64h128zM64 128l-32 16v0l-16 16l-16 32v256l16 32l16 16l32 16h128l32 -16v-1l16 -15l16 -32v-64l-16 -32h-1l-15 -16l-32 -16h-128v-128h128v64h64v-64l-16 -32h-1l-15 -16l-32 -16h-128zM128 576l-16 32l-16 32l-16 32l-16 32h64l16 -32l16 -32 l16 -32l16 -32h-64z" glyph-name="egrave" unicode="è"/>
<glyph d="M192 384v64h-128v-64h128zM64 128l-32 16v0l-16 16l-16 32v256l16 32l16 16l32 16h128l32 -16v-1l16 -15l16 -32v-64l-16 -32h-1l-15 -16l-32 -16h-128v-128h128v64h64v-64l-16 -32h-1l-15 -16l-32 -16h-128zM64 576l16 32l16 32l16 32l16 32h64l-16 -32l-16 -32l-16 -32 l-16 -32h-64z" glyph-name="eacute" unicode="é"/>
<glyph d="M192 384v64h-128v-64h128zM64 128l-32 16v0l-16 16l-16 32v256l16 32l16 16l32 16h128l32 -16v-1l16 -15l16 -32v-64l-16 -32h-1l-15 -16l-32 -16h-128v-128h128v64h64v-64l-16 -32h-1l-15 -16l-32 -16h-128zM0 576l16 32l16 32l16 32l16 32h64l16 -32l16 -32l16 -32 l16 -32h-64l-16 32l-16 32l-16 -32l-16 -32h-64z" glyph-name="ecircumflex" unicode="ê"/>
<glyph d="M192 384v64h-128v-64h128zM64 128l-32 16v0l-16 16l-16 32v256l16 32l16 16l32 16h128l32 -16v-1l16 -15l16 -32v-64l-16 -32h-1l-15 -16l-32 -16h-128v-128h128v64h64v-64l-16 -32h-1l-15 -16l-32 -16h-128zM0 576v64h64v-64h-64zM192 576v64h64v-64h-64z" glyph-name="edieresis" unicode="ë"/>
<glyph d="M64 128v64h32v256h-32v64h96v-320h32v-64h-128zM128 576l-16 32l-16 32l-16 32l-16 32h64l16 -32l16 -32l16 -32l16 -32h-64z" glyph-name="igrave" unicode="ì"/>
<glyph d="M64 128v64h32v256h-32v64h96v-320h32v-64h-128zM64 576l16 32l16 32l16 32l16 32h64l-16 -32l-16 -32l-16 -32l-16 -32h-64z" glyph-name="iacute" unicode="í"/>
<glyph d="M64 128v64h32v256h-32v64h96v-320h32v-64h-128zM0 576l16 32l16 32l16 32l16 32h64l16 -32l16 -32l16 -32l16 -32h-64l-16 32l-16 32l-16 -32l-16 -32h-64z" glyph-name="icircumflex" unicode="î"/>
<glyph d="M64 128v64h32v256h-32v64h96v-320h32v-64h-128zM0 576v64h64v-64h-64zM192 576v64h64v-64h-64z" glyph-name="idieresis" unicode="ï"/>
<glyph d="M64 320v128h128v-128h-128z" glyph-name="eth" unicode="ð"/>
<glyph d="M0 128v384h192l32 -16v-1l16 -15l16 -32v-320h-64v320h-128v-320h-64zM0 576l16 32l16 32l16 32l16 32h64l16 -32l16 -32l16 32l16 32h64l-16 -32l-16 -32l-16 -32l-16 -32h-64l-16 32l-16 32l-16 -32l-16 -32h-64z" glyph-name="ntilde" unicode="ñ"/>
<glyph d="M192 192v256h-128v-256h128zM64 128l-32 16v0l-16 16l-16 32v256l16 32l16 16l32 16h128l32 -16v-1l16 -15l16 -32v-256l-16 -32h-1l-15 -16l-32 -16h-128zM128 576l-16 32l-16 32l-16 32l-16 32h64l16 -32l16 -32l16 -32l16 -32h-64z" glyph-name="ograve" unicode="ò"/>
<glyph d="M192 192v256h-128v-256h128zM64 128l-32 16v0l-16 16l-16 32v256l16 32l16 16l32 16h128l32 -16v-1l16 -15l16 -32v-256l-16 -32h-1l-15 -16l-32 -16h-128zM64 576l16 32l16 32l16 32l16 32h64l-16 -32l-16 -32l-16 -32l-16 -32h-64z" glyph-name="oacute" unicode="ó"/>
<glyph d="M192 192v256h-128v-256h128zM64 128l-32 16v0l-16 16l-16 32v256l16 32l16 16l32 16h128l32 -16v-1l16 -15l16 -32v-256l-16 -32h-1l-15 -16l-32 -16h-128zM0 576l16 32l16 32l16 32l16 32h64l16 -32l16 -32l16 -32l16 -32h-64l-16 32l-16 32l-16 -32l-16 -32h-64z" glyph-name="ocircumflex" unicode="ô"/>
<glyph d="M192 192v256h-128v-256h128zM64 128l-32 16v0l-16 16l-16 32v256l16 32l16 16l32 16h128l32 -16v-1l16 -15l16 -32v-256l-16 -32h-1l-15 -16l-32 -16h-128zM0 576l16 32l16 32l16 32l16 32h64l16 -32l16 -32l16 32l16 32h64l-16 -32l-16 -32l-16 -32l-16 -32h-64l-16 32 l-16 32l-16 -32l-16 -32h-64z" glyph-name="otilde" unicode="õ"/>
<glyph d="M192 192v256h-128v-256h128zM64 128l-32 16v0l-16 16l-16 32v256l16 32l16 16l32 16h128l32 -16v-1l16 -15l16 -32v-256l-16 -32h-1l-15 -16l-32 -16h-128zM0 576v64h64v-64h-64zM192 576v64h64v-64h-64z" glyph-name="odieresis" unicode="ö"/>
<glyph d="M96 192v64h64v-64h-64zM0 320v64h256v-64h-256zM96 448v64h64v-64h-64z" glyph-name="divide" unicode="÷"/>
<glyph d="M192 192v128l-16 -32l-16 -32l-16 -32l-16 -32h64zM64 192l16 32l16 32l16 32l16 32l16 32l16 32l16 32l16 32h-128v-256v0zM64 128l-32 16v0l-16 16l-16 32v256l16 32l16 16l32 16h128l32 -16v-1l16 -15l16 -32v-256l-16 -32h-1l-15 -16l-32 -16h-128z" glyph-name="oslash" unicode="ø"/>
<glyph d="M64 128l-32 16v0l-16 16l-16 32v320h64v-320h128v320h64v-320l-16 -32h-1l-15 -16l-32 -16h-128zM128 576l-16 32l-16 32l-16 32l-16 32h64l16 -32l16 -32l16 -32l16 -32h-64z" glyph-name="ugrave" unicode="ù"/>
<glyph d="M64 128l-32 16v0l-16 16l-16 32v320h64v-320h128v320h64v-320l-16 -32h-1l-15 -16l-32 -16h-128zM64 576l16 32l16 32l16 32l16 32h64l-16 -32l-16 -32l-16 -32l-16 -32h-64z" glyph-name="uacute" unicode="ú"/>
<glyph d="M64 128l-32 16v0l-16 16l-16 32v320h64v-320h128v320h64v-320l-16 -32h-1l-15 -16l-32 -16h-128zM0 576l16 32l16 32l16 32l16 32h64l16 -32l16 -32l16 -32l16 -32h-64l-16 32l-16 32l-16 -32l-16 -32h-64z" glyph-name="ucircumflex" unicode="û"/>
<glyph d="M64 128l-32 16v0l-16 16l-16 32v320h64v-320h128v320h64v-320l-16 -32h-1l-15 -16l-32 -16h-128zM0 576v64h64v-64h-64zM192 576v64h64v-64h-64z" glyph-name="udieresis" unicode="ü"/>
<glyph d="M64 0l-32 16v0l-16 16l-16 32h192v64h-128l-32 16v0l-16 16l-16 32v320h64v-320h128v320h64v-448l-16 -32h-1l-15 -16l-32 -16h-128zM64 576l16 32l16 32l16 32l16 32h64l-16 -32l-16 -32l-16 -32l-16 -32h-64z" glyph-name="yacute" unicode="ý"/>
<glyph d="M64 128v64h32v256h-32v64h128v-64h-32v-256h32v-64h-128z" glyph-name="thorn" unicode="þ"/>
</font>
</defs>
</svg>
